<svg xmlns="http://www.w3.org/2000/svg" xmlns:xlink="http://www.w3.org/1999/xlink" width="420" height="413" fill="none"  xmlns:v="https://vecta.io/nano"><g clip-path="url(#w)"><path opacity=".3" d="M410.227 176.72c-5.022-35.13-34.384-64.872-59.45-86.411-42.864-36.83-98.815-62.826-155.313-47.502-54.012 14.632-98.228 62.45-125.793 111.584-7.774 13.857-14.88 28.61-20.468 43.579-14.792 39.617-35.935 85.047-13.395 125.616 28.582 51.447 97.237 65.081 139.353 21.707 23.277-23.971 57.073-70.775 82.088-92.856 55.321-48.839 109.178 11.632 145.553-41.635 7.242-10.597 9.123-22.242 7.426-34.083z" fill="url(#A)"/><g opacity=".4"><path opacity=".4" d="M363.909 137.953c-40.337-32.647-93.881-35.91-141.997-39.058-72.785-4.769-169.16 60.894-156.682 169.822 4.858 42.353 40.146 53.94 70.346 44.967 39.176-11.631 64.931-56.563 95.768-86.107 17.038-16.319 35.895-26.28 56.731-26.582 21.452-.315 40.089 10.924 62.13 7.197 13.947-2.363 23.678-8.974 29.567-26.134 7.764-22.625-1.95-32.85-15.863-44.105z" fill="url(#B)"/></g><g opacity=".6"><path opacity=".6" d="M363.477 131.151c-33.865-32.025-81.92-42.516-125.087-52.116C173.087 64.51 81.036 102.8 83.838 191.689c1.094 34.559 32.032 49.018 59.978 46.292 36.253-3.533 62.978-35.647 93.094-54.718 16.638-10.534 34.427-15.719 53.247-12.895 19.381 2.908 35.322 14.638 55.502 14.899 12.767.166 22.06-3.686 28.704-16.529 8.763-16.94.792-26.543-10.886-37.587z" fill="url(#C)"/></g><g opacity=".15"><path d="M105.382 302.369l-.422-.885 180.838-85.158.414.894-180.83 85.149z" fill="url(#D)"/><path d="M103.565 298.319l-.421-.874 180.827-85.156.416.888-180.822 85.142z" fill="url(#E)"/><path d="M101.731 294.285l-.4-.888 180.822-85.142.42.879-180.842 85.151z" fill="url(#F)"/><path d="M99.906 290.242l-.406-.885 180.832-85.154.414.893-180.839 85.146z" fill="url(#G)"/><path d="M98.098 286.194l-.421-.873 180.84-85.162.404.889-180.823 85.146z" fill="url(#H)"/><path d="M96.261 282.153l-.406-.884 180.838-85.158.404.89-180.836 85.152z" fill="url(#I)"/><path d="M94.444 278.119l-.411-.886 180.833-85.159.414.893-180.836 85.152z" fill="url(#J)"/><path d="M92.619 274.072l-.408-.88 180.829-85.161.416.888-180.837 85.153z" fill="url(#K)"/><path d="M90.798 270.031l-.411-.887 180.838-85.157.404.89-180.832 85.154z" fill="url(#L)"/><path d="M88.982 265.993l-.413-.882 180.829-85.161.414.894-180.83 85.149z" fill="url(#M)"/><path d="M87.157 261.95l-.408-.88 180.834-85.159.407.88L87.157 261.95z" fill="url(#N)"/><path d="M85.338 257.905l-.413-.882 180.834-85.159.404.889-180.825 85.152z" fill="url(#O)"/><path d="M83.53 253.858l-.419-.879 180.822-85.158.414.894L83.53 253.858z" fill="url(#P)"/><path d="M81.696 249.823l-.399-.888 180.819-85.148.408.88-180.827 85.156z" fill="url(#Q)"/><path d="M79.87 245.78l-.406-.884 180.827-85.157.414.894L79.87 245.78z" fill="url(#R)"/><path d="M78.063 241.734l-.419-.879 180.832-85.154.405.885-180.818 85.148z" fill="url(#S)"/><path d="M76.231 237.694l-.399-.888 180.822-85.158.414.893-180.837 85.153z" fill="url(#T)"/><path d="M74.408 233.658l-.411-.886 180.831-85.166.414.893-180.834 85.159z" fill="url(#U)"/><path d="M72.6 229.611l-.419-.878 180.831-85.167.417.884L72.6 229.611z" fill="url(#V)"/><path d="M70.768 225.571l-.4-.887 180.819-85.165.414.893-180.834 85.159z" fill="url(#W)"/><path d="M68.948 221.531l-.413-.881 180.826-85.168.414.893-180.827 85.156z" fill="url(#X)"/><path d="M67.133 217.487l-.417-.883 180.829-85.162.408.88-180.819 85.165z" fill="url(#Y)"/><path d="M65.303 213.443l-.395-.886 180.813-85.162.414.893-180.832 85.155z" fill="url(#Z)"/><path d="M63.48 209.407l-.404-.889 180.826-85.157.414.894L63.48 209.407z" fill="url(#a)"/><path d="M61.658 205.354l-.393-.891 180.827-85.156.393.891-180.827 85.156z" fill="url(#b)"/><path d="M59.836 201.319l-.414-.893 180.832-85.155.414.894-180.832 85.154z" fill="url(#c)"/><path d="M58.018 197.285l-.414-.893 180.833-85.16.405.89-180.824 85.163z" fill="url(#d)"/><path d="M56.191 193.231l-.398-.893 180.833-85.154.402.894-180.837 85.153z" fill="url(#e)"/><path d="M54.373 189.197l-.414-.893 180.839-85.158.404.89-180.829 85.161z" fill="url(#f)"/><path d="M52.557 185.158l-.414-.893L232.97 99.108l.414.894-180.827 85.156z" fill="url(#g)"/><path d="M50.728 181.109l-.398-.893 180.818-85.16.416.889-180.836 85.164z" fill="url(#h)"/><path d="M48.913 177.07l-.414-.893 180.832-85.155.406.885L48.913 177.07z" fill="url(#i)"/><path d="M47.098 173.026l-.422-.885 180.838-85.158.398.876-180.814 85.167z" fill="url(#j)"/><path d="M45.268 168.982l-.414-.893 180.827-85.157.416.888-180.829 85.162z" fill="url(#k)"/><path d="M43.446 164.946l-.41-.892 180.827-85.156.418.883-180.835 85.165z" fill="url(#l)"/><path d="M41.633 160.897l-.422-.885 180.838-85.158.408.879-180.824 85.163z" fill="url(#m)"/><path d="M39.801 156.858l-.407-.897 180.83-85.149.417.883-180.84 85.163z" fill="url(#n)"/><path d="M37.987 152.814l-.414-.893L218.41 66.768l.404.89-180.827 85.156z" fill="url(#o)"/><path d="M36.173 148.77l-.419-.895L216.582 62.73l.41.874L36.173 148.77z" fill="url(#p)"/><path d="M34.342 144.726l-.421-.891L214.76 58.678l.405.89-180.823 85.158z" fill="url(#q)"/><path d="M32.52 140.69l-.415-.894 180.836-85.147.405.885L32.52 140.69z" fill="url(#r)"/><path d="M30.694 136.647l-.396-.897 180.827-85.14.398.876-180.828 85.161z" fill="url(#s)"/><path d="M28.88 132.604l-.414-.894 180.825-85.151.416.888L28.88 132.604z" fill="url(#t)"/><path d="M27.067 128.555l-.429-.883L207.475 42.52l.419.879-180.827 85.156z" fill="url(#u)"/><path d="M25.23 124.514l-.414-.894 180.846-85.149.395.886L25.23 124.514z" fill="url(#v)"/></g></g><defs><linearGradient id="A" x1="61.332" y1="161.321" x2="382.274" y2="274.05" xlink:href="#x"><stop stop-color="#ae2dc8"/><stop offset=".474" stop-color="#f22076"/><stop offset="1" stop-color="#ffc156"/></linearGradient><linearGradient id="B" x1="75.02" y1="181.867" x2="367.426" y2="243.18" xlink:href="#x"><stop stop-color="#ae2dc8"/><stop offset=".474" stop-color="#fd5a45"/><stop offset="1" stop-color="#ffc156"/></linearGradient><linearGradient id="C" x1="99.411" y1="123.724" x2="359.129" y2="213.907" xlink:href="#x"><stop stop-color="#ae2dc8"/><stop offset=".474" stop-color="#fd5a45"/><stop offset="1" stop-color="#ffc156"/></linearGradient><linearGradient id="D" x1="118.519" y1="80.218" x2="180.782" y2="223.228" xlink:href="#x"><stop stop-color="#ffbd66"/><stop offset=".359" stop-color="#ffd39a"/><stop offset="1" stop-color="#fff"/></linearGradient><linearGradient id="E" x1="118.492" y1="80.346" x2="180.726" y2="223.289" xlink:href="#x"><stop stop-color="#ffbd66"/><stop offset=".359" stop-color="#ffd39a"/><stop offset="1" stop-color="#fff"/></linearGradient><linearGradient id="F" x1="118.392" y1="80.285" x2="180.664" y2="223.314" xlink:href="#x"><stop stop-color="#ffbd66"/><stop offset=".359" stop-color="#ffd39a"/><stop offset="1" stop-color="#fff"/></linearGradient><linearGradient id="G" x1="118.246" y1="80.158" x2="180.585" y2="223.343" xlink:href="#x"><stop stop-color="#ffbd66"/><stop offset=".359" stop-color="#ffd39a"/><stop offset="1" stop-color="#fff"/></linearGradient><linearGradient id="H" x1="118.188" y1="80.221" x2="180.524" y2="223.397" xlink:href="#x"><stop stop-color="#ffbd66"/><stop offset=".359" stop-color="#ffd39a"/><stop offset="1" stop-color="#fff"/></linearGradient><linearGradient id="I" x1="118.227" y1="80.499" x2="180.473" y2="223.469" xlink:href="#x"><stop stop-color="#ffbd66"/><stop offset=".359" stop-color="#ffd39a"/><stop offset="1" stop-color="#fff"/></linearGradient><linearGradient id="J" x1="118.149" y1="80.511" x2="180.41" y2="223.515" xlink:href="#x"><stop stop-color="#ffbd66"/><stop offset=".359" stop-color="#ffd39a"/><stop offset="1" stop-color="#fff"/></linearGradient><linearGradient id="K" x1="118.068" y1="80.516" x2="180.345" y2="223.558" xlink:href="#x"><stop stop-color="#ffbd66"/><stop offset=".359" stop-color="#ffd39a"/><stop offset="1" stop-color="#fff"/></linearGradient><linearGradient id="L" x1="118.003" y1="80.562" x2="180.281" y2="223.607" xlink:href="#x"><stop stop-color="#ffbd66"/><stop offset=".359" stop-color="#ffd39a"/><stop offset="1" stop-color="#fff"/></linearGradient><linearGradient id="M" x1="117.958" y1="80.65" x2="180.22" y2="223.656" xlink:href="#x"><stop stop-color="#ffbd66"/><stop offset=".359" stop-color="#ffd39a"/><stop offset="1" stop-color="#fff"/></linearGradient><linearGradient id="N" x1="117.87" y1="80.632" x2="180.161" y2="223.705" xlink:href="#x"><stop stop-color="#ffbd66"/><stop offset=".359" stop-color="#ffd39a"/><stop offset="1" stop-color="#fff"/></linearGradient><linearGradient id="O" x1="117.775" y1="80.611" x2="180.099" y2="223.761" xlink:href="#x"><stop stop-color="#ffbd66"/><stop offset=".359" stop-color="#ffd39a"/><stop offset="1" stop-color="#fff"/></linearGradient><linearGradient id="P" x1="117.734" y1="80.694" x2="180.042" y2="223.806" xlink:href="#x"><stop stop-color="#ffbd66"/><stop offset=".359" stop-color="#ffd39a"/><stop offset="1" stop-color="#fff"/></linearGradient><linearGradient id="Q" x1="117.735" y1="80.88" x2="179.975" y2="223.835" xlink:href="#x"><stop stop-color="#ffbd66"/><stop offset=".359" stop-color="#ffd39a"/><stop offset="1" stop-color="#fff"/></linearGradient><linearGradient id="R" x1="117.637" y1="80.857" x2="179.914" y2="223.896" xlink:href="#x"><stop stop-color="#ffbd66"/><stop offset=".359" stop-color="#ffd39a"/><stop offset="1" stop-color="#fff"/></linearGradient><linearGradient id="S" x1="117.566" y1="80.882" x2="179.854" y2="223.949" xlink:href="#x"><stop stop-color="#ffbd66"/><stop offset=".359" stop-color="#ffd39a"/><stop offset="1" stop-color="#fff"/></linearGradient><linearGradient id="T" x1="117.498" y1="80.892" x2="179.805" y2="224.003" xlink:href="#x"><stop stop-color="#ffbd66"/><stop offset=".359" stop-color="#ffd39a"/><stop offset="1" stop-color="#fff"/></linearGradient><linearGradient id="U" x1="117.449" y1="80.993" x2="179.73" y2="224.044" xlink:href="#x"><stop stop-color="#ffbd66"/><stop offset=".359" stop-color="#ffd39a"/><stop offset="1" stop-color="#fff"/></linearGradient><linearGradient id="V" x1="117.385" y1="81.018" x2="179.678" y2="224.096" xlink:href="#x"><stop stop-color="#ffbd66"/><stop offset=".359" stop-color="#ffd39a"/><stop offset="1" stop-color="#fff"/></linearGradient><linearGradient id="W" x1="117.336" y1="81.09" x2="179.616" y2="224.139" xlink:href="#x"><stop stop-color="#ffbd66"/><stop offset=".359" stop-color="#ffd39a"/><stop offset="1" stop-color="#fff"/></linearGradient><linearGradient id="X" x1="117.264" y1="81.141" x2="179.545" y2="224.194" xlink:href="#x"><stop stop-color="#ffbd66"/><stop offset=".359" stop-color="#ffd39a"/><stop offset="1" stop-color="#fff"/></linearGradient><linearGradient id="Y" x1="117.197" y1="81.171" x2="179.49" y2="224.249" xlink:href="#x"><stop stop-color="#ffbd66"/><stop offset=".359" stop-color="#ffd39a"/><stop offset="1" stop-color="#fff"/></linearGradient><linearGradient id="Z" x1="117.14" y1="81.211" x2="179.437" y2="224.296" xlink:href="#x"><stop stop-color="#ffbd66"/><stop offset=".359" stop-color="#ffd39a"/><stop offset="1" stop-color="#fff"/></linearGradient><linearGradient id="a" x1="117.063" y1="81.238" x2="179.377" y2="224.363" xlink:href="#x"><stop stop-color="#ffbd66"/><stop offset=".359" stop-color="#ffd39a"/><stop offset="1" stop-color="#fff"/></linearGradient><linearGradient id="b" x1="117.028" y1="81.332" x2="179.306" y2="224.378" xlink:href="#x"><stop stop-color="#ffbd66"/><stop offset=".359" stop-color="#ffd39a"/><stop offset="1" stop-color="#fff"/></linearGradient><linearGradient id="c" x1="116.948" y1="81.367" x2="179.245" y2="224.452" xlink:href="#x"><stop stop-color="#ffbd66"/><stop offset=".359" stop-color="#ffd39a"/><stop offset="1" stop-color="#fff"/></linearGradient><linearGradient id="d" x1="116.889" y1="81.426" x2="179.175" y2="224.49" xlink:href="#x"><stop stop-color="#ffbd66"/><stop offset=".359" stop-color="#ffd39a"/><stop offset="1" stop-color="#fff"/></linearGradient><linearGradient id="e" x1="116.863" y1="81.527" x2="179.098" y2="224.471" xlink:href="#x"><stop stop-color="#ffbd66"/><stop offset=".359" stop-color="#ffd39a"/><stop offset="1" stop-color="#fff"/></linearGradient><linearGradient id="f" x1="116.741" y1="81.459" x2="179.09" y2="224.665" xlink:href="#x"><stop stop-color="#ffbd66"/><stop offset=".359" stop-color="#ffd39a"/><stop offset="1" stop-color="#fff"/></linearGradient><linearGradient id="g" x1="116.709" y1="81.572" x2="178.992" y2="224.629" xlink:href="#x"><stop stop-color="#ffbd66"/><stop offset=".359" stop-color="#ffd39a"/><stop offset="1" stop-color="#fff"/></linearGradient><linearGradient id="h" x1="116.655" y1="81.617" x2="178.939" y2="224.674" xlink:href="#x"><stop stop-color="#ffbd66"/><stop offset=".359" stop-color="#ffd39a"/><stop offset="1" stop-color="#fff"/></linearGradient><linearGradient id="i" x1="116.582" y1="81.661" x2="178.88" y2="224.75" xlink:href="#x"><stop stop-color="#ffbd66"/><stop offset=".359" stop-color="#ffd39a"/><stop offset="1" stop-color="#fff"/></linearGradient><linearGradient id="j" x1="116.515" y1="81.701" x2="178.824" y2="224.816" xlink:href="#x"><stop stop-color="#ffbd66"/><stop offset=".359" stop-color="#ffd39a"/><stop offset="1" stop-color="#fff"/></linearGradient><linearGradient id="k" x1="116.467" y1="81.771" x2="178.747" y2="224.82" xlink:href="#x"><stop stop-color="#ffbd66"/><stop offset=".359" stop-color="#ffd39a"/><stop offset="1" stop-color="#fff"/></linearGradient><linearGradient id="l" x1="116.417" y1="81.841" x2="178.663" y2="224.812" xlink:href="#x"><stop stop-color="#ffbd66"/><stop offset=".359" stop-color="#ffd39a"/><stop offset="1" stop-color="#fff"/></linearGradient><linearGradient id="m" x1="116.349" y1="81.88" x2="178.61" y2="224.885" xlink:href="#x"><stop stop-color="#ffbd66"/><stop offset=".359" stop-color="#ffd39a"/><stop offset="1" stop-color="#fff"/></linearGradient><linearGradient id="n" x1="116.28" y1="81.899" x2="178.593" y2="225.021" xlink:href="#x"><stop stop-color="#ffbd66"/><stop offset=".359" stop-color="#ffd39a"/><stop offset="1" stop-color="#fff"/></linearGradient><linearGradient id="o" x1="116.217" y1="81.951" x2="178.53" y2="225.075" xlink:href="#x"><stop stop-color="#ffbd66"/><stop offset=".359" stop-color="#ffd39a"/><stop offset="1" stop-color="#fff"/></linearGradient><linearGradient id="p" x1="116.161" y1="82.003" x2="178.466" y2="225.11" xlink:href="#x"><stop stop-color="#ffbd66"/><stop offset=".359" stop-color="#ffd39a"/><stop offset="1" stop-color="#fff"/></linearGradient><linearGradient id="q" x1="116.097" y1="82.071" x2="178.349" y2="225.053" xlink:href="#x"><stop stop-color="#ffbd66"/><stop offset=".359" stop-color="#ffd39a"/><stop offset="1" stop-color="#fff"/></linearGradient><linearGradient id="r" x1="116.035" y1="82.113" x2="178.312" y2="225.155" xlink:href="#x"><stop stop-color="#ffbd66"/><stop offset=".359" stop-color="#ffd39a"/><stop offset="1" stop-color="#fff"/></linearGradient><linearGradient id="s" x1="115.979" y1="82.159" x2="178.241" y2="225.164" xlink:href="#x"><stop stop-color="#ffbd66"/><stop offset=".359" stop-color="#ffd39a"/><stop offset="1" stop-color="#fff"/></linearGradient><linearGradient id="t" x1="115.915" y1="82.207" x2="178.208" y2="225.286" xlink:href="#x"><stop stop-color="#ffbd66"/><stop offset=".359" stop-color="#ffd39a"/><stop offset="1" stop-color="#fff"/></linearGradient><linearGradient id="u" x1="115.854" y1="82.254" x2="178.176" y2="225.398" xlink:href="#x"><stop stop-color="#ffbd66"/><stop offset=".359" stop-color="#ffd39a"/><stop offset="1" stop-color="#fff"/></linearGradient><linearGradient id="v" x1="115.787" y1="82.304" x2="178.036" y2="225.281" xlink:href="#x"><stop stop-color="#ffbd66"/><stop offset=".359" stop-color="#ffd39a"/><stop offset="1" stop-color="#fff"/></linearGradient><clipPath id="w"><path fill="#fff" d="M0 0h420v413H0z"/></clipPath><linearGradient id="x" gradientUnits="userSpaceOnUse"/></defs></svg>