<svg xmlns="http://www.w3.org/2000/svg" xmlns:xlink="http://www.w3.org/1999/xlink" width="420" height="413" fill="none"  xmlns:v="https://vecta.io/nano"><g clip-path="url(#w)"><path opacity=".4" d="M326.863 341.531c10.756-11.051 19.912-23.68 26.761-38 24.392-50.96 20.317-112.411-1.136-163.52-10.573-25.21-26.019-56.308-44.878-76.071-41.221-43.19-124.674-81.808-180.599-48.452C101.752 30.553 92.086 61.374 98.3 89.524c13.528 61.28 145.42 145.66 51.48 199.572-25.878 14.854-113.621 49.445-58.326 89.329 37.068 26.734 93.719 30.19 135.805 18.462 36.088-10.053 72.825-27.844 99.604-55.356z" fill="url(#A)"/><path opacity=".7" d="M336.63 324.6c8.913-9.156 16.496-19.616 22.173-31.48 20.207-42.216 16.829-93.128-.94-135.472-8.761-20.887-21.559-46.645-37.185-63.021-34.151-35.78-103.29-67.773-149.62-40.145-20.927 12.483-28.937 38.02-23.788 61.34 11.207 50.765 120.478 120.672 42.65 165.341-21.437 12.308-94.13 40.965-48.319 74.003 30.711 22.15 77.644 25.013 112.51 15.298 29.9-8.326 60.335-23.07 82.519-45.864z" fill="url(#B)"/><path opacity=".7" d="M344.448 344.525c8.754-7.201 16.457-15.686 22.605-25.604 21.905-35.312 23.757-80.703 12.078-119.971-5.765-19.366-14.631-43.451-26.893-59.525-26.801-35.108-84.912-70.408-128.527-50.651-19.694 8.927-29.217 30.71-26.877 51.868 5.077 46.049 81.308 109.835 35.298 152.705-16.197 15.099-46.138 42.322-34.56 67.507 23.101 50.208 118.388 7.107 146.876-16.329z" fill="url(#C)"/><g opacity=".15"><path d="M79.114 312.043l.663.709L222.184 168.03l-.653-.703L79.114 312.043z" fill="url(#D)"/><path d="M82.144 315.216l.643.708 142.416-144.711-.663-.703L82.144 315.216z" fill="url(#E)"/><path d="M85.154 318.42l.663.687 142.407-144.711-.663-.703L85.154 318.42z" fill="url(#F)"/><path d="M88.164 321.613l.663.698 142.417-144.717-.673-.713L88.164 321.613z" fill="url(#G)"/><path d="M91.185 324.785l.643.714 142.426-144.722-.663-.697L91.185 324.785z" fill="url(#H)"/><path d="M94.195 327.994l.673.693L237.284 183.96l-.673-.687L94.195 327.994z" fill="url(#I)"/><path d="M97.205 331.172l.663.703 142.416-144.721-.663-.693L97.205 331.172z" fill="url(#J)"/><path d="M100.235 334.365l.653.698 142.417-144.717-.664-.708-142.406 144.727z" fill="url(#K)"/><path d="M103.244 337.558l.674.698 142.407-144.727-.664-.687-142.417 144.716z" fill="url(#L)"/><path d="M106.255 340.742l.673.697 142.416-144.716-.662-.698-142.427 144.717z" fill="url(#M)"/><path d="M109.275 343.935l.653.687 142.427-144.716-.653-.698-142.427 144.727z" fill="url(#N)"/><path d="M112.305 347.117l.643.699 142.427-144.717-.663-.698-142.407 144.716z" fill="url(#O)"/><path d="M115.315 350.29l.653.708 142.427-144.711-.674-.703L115.315 350.29z" fill="url(#P)"/><path d="M118.335 353.483l.663.698L261.395 209.47l-.653-.693-142.407 144.706z" fill="url(#Q)"/><path d="M121.345 356.677l.663.697 142.416-144.716-.673-.698-142.406 144.717z" fill="url(#R)"/><path d="M124.365 359.86l.653.708 142.417-144.711-.664-.709L124.365 359.86z" fill="url(#S)"/><path d="M127.375 363.053l.674.697 142.416-144.705-.663-.714-142.427 144.722z" fill="url(#T)"/><path d="M130.385 366.246l.674.698 142.417-144.716-.664-.698-142.427 144.716z" fill="url(#U)"/><path d="M133.426 369.418l.643.708L276.496 225.41l-.653-.703-142.417 144.711z" fill="url(#V)"/><path d="M136.425 372.622l.674.687 142.416-144.7-.663-.703-142.427 144.716z" fill="url(#W)"/><path d="M139.435 375.805l.674.704 142.417-144.711-.664-.709-142.427 144.716z" fill="url(#X)"/><path d="M142.465 378.988l.653.703L285.535 234.98l-.653-.693-142.417 144.701z" fill="url(#Y)"/><path d="M145.475 382.181l.664.688 142.416-144.695-.663-.709-142.417 144.716z" fill="url(#Z)"/><path d="M148.485 385.364l.674.709 142.416-144.717-.673-.709-142.417 144.717z" fill="url(#a)"/><path d="M151.516 388.557l.664.688 142.416-144.711-.663-.682-142.417 144.705z" fill="url(#b)"/><path d="M154.526 391.745l.664.704 142.416-144.717-.663-.692-142.417 144.705z" fill="url(#c)"/><path d="M157.536 394.933l.674.709L300.616 250.92l-.663-.698-142.417 144.711z" fill="url(#d)"/><path d="M160.556 398.127l.673.693 142.417-144.717-.673-.692-142.417 144.716z" fill="url(#e)"/><path d="M163.576 401.321l.664.692 142.427-144.711-.674-.698-142.417 144.717z" fill="url(#f)"/><path d="M166.586 404.492l.674.709 142.406-144.717-.653-.697-142.427 144.705z" fill="url(#g)"/><path d="M169.606 407.697l.673.687 142.417-144.706-.663-.698-142.427 144.717z" fill="url(#h)"/><path d="M172.626 410.879l.653.698L315.706 266.86l-.663-.697-142.417 144.716z" fill="url(#i)"/><path d="M175.647 414.057l.653.709 142.427-144.723-.663-.682-142.417 144.696z" fill="url(#j)"/><path d="M178.657 417.255l.673.698 142.417-144.706-.663-.698-142.427 144.706z" fill="url(#k)"/><path d="M181.667 420.433l.673.703L324.758 276.43l-.664-.703-142.427 144.706z" fill="url(#l)"/><path d="M184.697 423.632l.653.708 142.417-144.733-.643-.687-142.427 144.712z" fill="url(#m)"/><path d="M187.707 426.815l.673.708 142.407-144.717-.653-.698-142.427 144.707z" fill="url(#n)"/><path d="M190.727 430.002l.663.703 142.417-144.716-.664-.698-142.416 144.711z" fill="url(#o)"/><path d="M193.758 433.179l.663.719 142.397-144.721-.664-.693-142.396 144.695z" fill="url(#p)"/><path d="M196.757 436.384l.664.708L339.837 292.37l-.653-.703-142.427 144.717z" fill="url(#q)"/><path d="M199.778 439.577l.663.698 142.416-144.716-.663-.704-142.416 144.722z" fill="url(#r)"/><path d="M202.788 442.771l.673.687 142.417-144.727-.663-.677-142.427 144.717z" fill="url(#s)"/><path d="M205.807 445.953l.664.709 142.427-144.727-.674-.698-142.417 144.716z" fill="url(#t)"/><path d="M208.837 449.125l.643.709 142.427-144.722-.643-.697-142.427 144.71z" fill="url(#u)"/><path d="M211.847 452.329l.663.708L354.937 308.3l-.673-.682-142.417 144.711z" fill="url(#v)"/></g></g><defs><linearGradient id="A" x1="151.568" y1="5.543" x2="257.591" y2="388.49" xlink:href="#x"><stop stop-color="#b12bc8"/><stop offset=".53" stop-color="#fd5c43"/><stop offset="1" stop-color="#ffc555"/></linearGradient><linearGradient id="B" x1="191.404" y1="46.245" x2="279.241" y2="363.507" xlink:href="#x"><stop stop-color="#f22076"/><stop offset=".53" stop-color="#fd5c43"/><stop offset="1" stop-color="#ffc555"/></linearGradient><linearGradient id="C" x1="259.364" y1="80.882" x2="305.793" y2="375.045" xlink:href="#x"><stop stop-color="#f22076"/><stop offset=".53" stop-color="#fd5c43"/><stop offset="1" stop-color="#ffc555"/></linearGradient><linearGradient id="D" x1="214.363" y1="181.029" x2="70.655" y2="304.965" xlink:href="#x"><stop stop-color="#feb532"/><stop offset=".272" stop-color="#fec866"/><stop offset=".893" stop-color="#fff7e8"/><stop offset="1" stop-color="#fff"/></linearGradient><linearGradient id="E" x1="217.223" y1="184.346" x2="73.515" y2="308.282" xlink:href="#x"><stop stop-color="#feb532"/><stop offset=".272" stop-color="#fec866"/><stop offset=".893" stop-color="#fff7e8"/><stop offset="1" stop-color="#fff"/></linearGradient><linearGradient id="F" x1="220.092" y1="187.674" x2="76.385" y2="311.61" xlink:href="#x"><stop stop-color="#feb532"/><stop offset=".272" stop-color="#fec866"/><stop offset=".893" stop-color="#fff7e8"/><stop offset="1" stop-color="#fff"/></linearGradient><linearGradient id="G" x1="222.962" y1="190.999" x2="79.254" y2="314.936" xlink:href="#x"><stop stop-color="#feb532"/><stop offset=".272" stop-color="#fec866"/><stop offset=".893" stop-color="#fff7e8"/><stop offset="1" stop-color="#fff"/></linearGradient><linearGradient id="H" x1="225.829" y1="194.325" x2="82.123" y2="318.261" xlink:href="#x"><stop stop-color="#feb532"/><stop offset=".272" stop-color="#fec866"/><stop offset=".893" stop-color="#fff7e8"/><stop offset="1" stop-color="#fff"/></linearGradient><linearGradient id="I" x1="228.705" y1="197.659" x2="84.997" y2="321.595" xlink:href="#x"><stop stop-color="#feb532"/><stop offset=".272" stop-color="#fec866"/><stop offset=".893" stop-color="#fff7e8"/><stop offset="1" stop-color="#fff"/></linearGradient><linearGradient id="J" x1="231.567" y1="200.979" x2="87.86" y2="324.915" xlink:href="#x"><stop stop-color="#feb532"/><stop offset=".272" stop-color="#fec866"/><stop offset=".893" stop-color="#fff7e8"/><stop offset="1" stop-color="#fff"/></linearGradient><linearGradient id="K" x1="234.434" y1="204.303" x2="90.726" y2="328.239" xlink:href="#x"><stop stop-color="#feb532"/><stop offset=".272" stop-color="#fec866"/><stop offset=".893" stop-color="#fff7e8"/><stop offset="1" stop-color="#fff"/></linearGradient><linearGradient id="L" x1="237.312" y1="207.638" x2="93.603" y2="331.576" xlink:href="#x"><stop stop-color="#feb532"/><stop offset=".272" stop-color="#fec866"/><stop offset=".893" stop-color="#fff7e8"/><stop offset="1" stop-color="#fff"/></linearGradient><linearGradient id="M" x1="240.176" y1="210.961" x2="96.471" y2="334.895" xlink:href="#x"><stop stop-color="#feb532"/><stop offset=".272" stop-color="#fec866"/><stop offset=".893" stop-color="#fff7e8"/><stop offset="1" stop-color="#fff"/></linearGradient><linearGradient id="N" x1="243.039" y1="214.281" x2="99.333" y2="338.215" xlink:href="#x"><stop stop-color="#feb532"/><stop offset=".272" stop-color="#fec866"/><stop offset=".893" stop-color="#fff7e8"/><stop offset="1" stop-color="#fff"/></linearGradient><linearGradient id="O" x1="245.909" y1="217.607" x2="102.202" y2="341.544" xlink:href="#x"><stop stop-color="#feb532"/><stop offset=".272" stop-color="#fec866"/><stop offset=".893" stop-color="#fff7e8"/><stop offset="1" stop-color="#fff"/></linearGradient><linearGradient id="P" x1="248.774" y1="220.929" x2="105.067" y2="344.865" xlink:href="#x"><stop stop-color="#feb532"/><stop offset=".272" stop-color="#fec866"/><stop offset=".893" stop-color="#fff7e8"/><stop offset="1" stop-color="#fff"/></linearGradient><linearGradient id="Q" x1="251.645" y1="224.26" x2="107.938" y2="348.196" xlink:href="#x"><stop stop-color="#feb532"/><stop offset=".272" stop-color="#fec866"/><stop offset=".893" stop-color="#fff7e8"/><stop offset="1" stop-color="#fff"/></linearGradient><linearGradient id="R" x1="254.51" y1="227.582" x2="110.804" y2="351.516" xlink:href="#x"><stop stop-color="#feb532"/><stop offset=".272" stop-color="#fec866"/><stop offset=".893" stop-color="#fff7e8"/><stop offset="1" stop-color="#fff"/></linearGradient><linearGradient id="S" x1="257.379" y1="230.909" x2="113.672" y2="354.844" xlink:href="#x"><stop stop-color="#feb532"/><stop offset=".272" stop-color="#fec866"/><stop offset=".893" stop-color="#fff7e8"/><stop offset="1" stop-color="#fff"/></linearGradient><linearGradient id="T" x1="260.252" y1="234.237" x2="116.544" y2="358.174" xlink:href="#x"><stop stop-color="#feb532"/><stop offset=".272" stop-color="#fec866"/><stop offset=".893" stop-color="#fff7e8"/><stop offset="1" stop-color="#fff"/></linearGradient><linearGradient id="U" x1="263.121" y1="237.565" x2="119.412" y2="361.501" xlink:href="#x"><stop stop-color="#feb532"/><stop offset=".272" stop-color="#fec866"/><stop offset=".893" stop-color="#fff7e8"/><stop offset="1" stop-color="#fff"/></linearGradient><linearGradient id="V" x1="265.985" y1="240.888" x2="122.279" y2="364.824" xlink:href="#x"><stop stop-color="#feb532"/><stop offset=".272" stop-color="#fec866"/><stop offset=".893" stop-color="#fff7e8"/><stop offset="1" stop-color="#fff"/></linearGradient><linearGradient id="W" x1="268.857" y1="244.216" x2="125.149" y2="368.152" xlink:href="#x"><stop stop-color="#feb532"/><stop offset=".272" stop-color="#fec866"/><stop offset=".893" stop-color="#fff7e8"/><stop offset="1" stop-color="#fff"/></linearGradient><linearGradient id="X" x1="271.724" y1="247.54" x2="128.017" y2="371.476" xlink:href="#x"><stop stop-color="#feb532"/><stop offset=".272" stop-color="#fec866"/><stop offset=".893" stop-color="#fff7e8"/><stop offset="1" stop-color="#fff"/></linearGradient><linearGradient id="Y" x1="274.593" y1="250.866" x2="130.884" y2="374.803" xlink:href="#x"><stop stop-color="#feb532"/><stop offset=".272" stop-color="#fec866"/><stop offset=".893" stop-color="#fff7e8"/><stop offset="1" stop-color="#fff"/></linearGradient><linearGradient id="Z" x1="277.455" y1="254.185" x2="133.746" y2="378.122" xlink:href="#x"><stop stop-color="#feb532"/><stop offset=".272" stop-color="#fec866"/><stop offset=".893" stop-color="#fff7e8"/><stop offset="1" stop-color="#fff"/></linearGradient><linearGradient id="a" x1="280.323" y1="257.514" x2="136.615" y2="381.451" xlink:href="#x"><stop stop-color="#feb532"/><stop offset=".272" stop-color="#fec866"/><stop offset=".893" stop-color="#fff7e8"/><stop offset="1" stop-color="#fff"/></linearGradient><linearGradient id="b" x1="283.196" y1="260.844" x2="139.49" y2="384.78" xlink:href="#x"><stop stop-color="#feb532"/><stop offset=".272" stop-color="#fec866"/><stop offset=".893" stop-color="#fff7e8"/><stop offset="1" stop-color="#fff"/></linearGradient><linearGradient id="c" x1="286.066" y1="264.17" x2="142.359" y2="388.106" xlink:href="#x"><stop stop-color="#feb532"/><stop offset=".272" stop-color="#fec866"/><stop offset=".893" stop-color="#fff7e8"/><stop offset="1" stop-color="#fff"/></linearGradient><linearGradient id="d" x1="288.933" y1="267.494" x2="145.226" y2="391.43" xlink:href="#x"><stop stop-color="#feb532"/><stop offset=".272" stop-color="#fec866"/><stop offset=".893" stop-color="#fff7e8"/><stop offset="1" stop-color="#fff"/></linearGradient><linearGradient id="e" x1="291.799" y1="270.82" x2="148.093" y2="394.755" xlink:href="#x"><stop stop-color="#feb532"/><stop offset=".272" stop-color="#fec866"/><stop offset=".893" stop-color="#fff7e8"/><stop offset="1" stop-color="#fff"/></linearGradient><linearGradient id="f" x1="294.67" y1="274.147" x2="150.962" y2="398.084" xlink:href="#x"><stop stop-color="#feb532"/><stop offset=".272" stop-color="#fec866"/><stop offset=".893" stop-color="#fff7e8"/><stop offset="1" stop-color="#fff"/></linearGradient><linearGradient id="g" x1="297.538" y1="277.474" x2="153.831" y2="401.41" xlink:href="#x"><stop stop-color="#feb532"/><stop offset=".272" stop-color="#fec866"/><stop offset=".893" stop-color="#fff7e8"/><stop offset="1" stop-color="#fff"/></linearGradient><linearGradient id="h" x1="300.408" y1="280.8" x2="156.7" y2="404.737" xlink:href="#x"><stop stop-color="#feb532"/><stop offset=".272" stop-color="#fec866"/><stop offset=".893" stop-color="#fff7e8"/><stop offset="1" stop-color="#fff"/></linearGradient><linearGradient id="i" x1="303.27" y1="284.121" x2="159.562" y2="408.057" xlink:href="#x"><stop stop-color="#feb532"/><stop offset=".272" stop-color="#fec866"/><stop offset=".893" stop-color="#fff7e8"/><stop offset="1" stop-color="#fff"/></linearGradient><linearGradient id="j" x1="306.144" y1="287.45" x2="162.434" y2="411.388" xlink:href="#x"><stop stop-color="#feb532"/><stop offset=".272" stop-color="#fec866"/><stop offset=".893" stop-color="#fff7e8"/><stop offset="1" stop-color="#fff"/></linearGradient><linearGradient id="k" x1="309.014" y1="290.781" x2="165.308" y2="414.717" xlink:href="#x"><stop stop-color="#feb532"/><stop offset=".272" stop-color="#fec866"/><stop offset=".893" stop-color="#fff7e8"/><stop offset="1" stop-color="#fff"/></linearGradient><linearGradient id="l" x1="311.877" y1="294.099" x2="168.17" y2="418.034" xlink:href="#x"><stop stop-color="#feb532"/><stop offset=".272" stop-color="#fec866"/><stop offset=".893" stop-color="#fff7e8"/><stop offset="1" stop-color="#fff"/></linearGradient><linearGradient id="m" x1="314.752" y1="297.431" x2="171.043" y2="421.368" xlink:href="#x"><stop stop-color="#feb532"/><stop offset=".272" stop-color="#fec866"/><stop offset=".893" stop-color="#fff7e8"/><stop offset="1" stop-color="#fff"/></linearGradient><linearGradient id="n" x1="317.62" y1="300.758" x2="173.911" y2="424.695" xlink:href="#x"><stop stop-color="#feb532"/><stop offset=".272" stop-color="#fec866"/><stop offset=".893" stop-color="#fff7e8"/><stop offset="1" stop-color="#fff"/></linearGradient><linearGradient id="o" x1="320.481" y1="304.077" x2="176.773" y2="428.014" xlink:href="#x"><stop stop-color="#feb532"/><stop offset=".272" stop-color="#fec866"/><stop offset=".893" stop-color="#fff7e8"/><stop offset="1" stop-color="#fff"/></linearGradient><linearGradient id="p" x1="323.354" y1="307.407" x2="179.646" y2="431.344" xlink:href="#x"><stop stop-color="#feb532"/><stop offset=".272" stop-color="#fec866"/><stop offset=".893" stop-color="#fff7e8"/><stop offset="1" stop-color="#fff"/></linearGradient><linearGradient id="q" x1="326.221" y1="310.733" x2="182.516" y2="434.667" xlink:href="#x"><stop stop-color="#feb532"/><stop offset=".272" stop-color="#fec866"/><stop offset=".893" stop-color="#fff7e8"/><stop offset="1" stop-color="#fff"/></linearGradient><linearGradient id="r" x1="329.089" y1="314.055" x2="185.381" y2="437.991" xlink:href="#x"><stop stop-color="#feb532"/><stop offset=".272" stop-color="#fec866"/><stop offset=".893" stop-color="#fff7e8"/><stop offset="1" stop-color="#fff"/></linearGradient><linearGradient id="s" x1="331.959" y1="317.385" x2="188.252" y2="441.321" xlink:href="#x"><stop stop-color="#feb532"/><stop offset=".272" stop-color="#fec866"/><stop offset=".893" stop-color="#fff7e8"/><stop offset="1" stop-color="#fff"/></linearGradient><linearGradient id="t" x1="334.826" y1="320.71" x2="191.118" y2="444.647" xlink:href="#x"><stop stop-color="#feb532"/><stop offset=".272" stop-color="#fec866"/><stop offset=".893" stop-color="#fff7e8"/><stop offset="1" stop-color="#fff"/></linearGradient><linearGradient id="u" x1="337.691" y1="324.033" x2="193.984" y2="447.969" xlink:href="#x"><stop stop-color="#feb532"/><stop offset=".272" stop-color="#fec866"/><stop offset=".893" stop-color="#fff7e8"/><stop offset="1" stop-color="#fff"/></linearGradient><linearGradient id="v" x1="340.566" y1="327.366" x2="196.859" y2="451.302" xlink:href="#x"><stop stop-color="#feb532"/><stop offset=".272" stop-color="#fec866"/><stop offset=".893" stop-color="#fff7e8"/><stop offset="1" stop-color="#fff"/></linearGradient><clipPath id="w"><path fill="#fff" d="M0 0h420v413H0z"/></clipPath><linearGradient id="x" gradientUnits="userSpaceOnUse"/></defs></svg>